<svg width="24" height="24" viewBox="0 0 24 24" fill="none" xmlns="http://www.w3.org/2000/svg">
<path fill-rule="evenodd" clip-rule="evenodd" d="M5.011 1.7175C6.40281 0.905766 7.92167 0.5 9.55794 0.5C11.1942 0.5 12.7162 0.905749 14.1146 1.71691C15.5107 2.52678 16.6159 3.63132 17.4238 5.02459C18.2331 6.42046 18.6373 7.94677 18.6373 9.59375C18.6373 11.6339 18.0275 13.4606 16.8132 15.0577L23.1613 21.4653C23.1611 21.4652 23.1614 21.4655 23.1613 21.4653C23.3892 21.6942 23.5 21.9854 23.5 22.3018C23.5 22.6265 23.3803 22.9185 23.1506 23.1489C22.9248 23.3754 22.6381 23.5 22.3145 23.5C21.9834 23.5 21.6951 23.3662 21.4677 23.1382L21.4666 23.1371L15.148 16.7591C13.5262 18.0422 11.6607 18.6875 9.56865 18.6875C7.92567 18.6875 6.40318 18.2819 5.011 17.47C3.62213 16.66 2.52097 15.5555 1.71351 14.1629C0.904147 12.767 0.5 11.2407 0.5 9.59375C0.5 7.94677 0.904147 6.42046 1.71351 5.02459C2.52097 3.63198 3.62213 2.52753 5.011 1.7175ZM9.55794 1.5C8.09521 1.5 6.75071 1.86051 5.5148 2.58132C4.27596 3.30385 3.29922 4.28338 2.57861 5.52619C1.85989 6.76573 1.5 8.11833 1.5 9.59375C1.5 11.0692 1.85989 12.4218 2.57861 13.6613C3.29922 14.9041 4.27596 15.8837 5.5148 16.6062C6.75034 17.3268 8.09835 17.6875 9.56865 17.6875C11.5752 17.6875 13.3297 17.0297 14.853 15.7048L15.2065 15.3973L22.1759 22.4321C22.1758 22.432 22.176 22.4323 22.1759 22.4321C22.2339 22.4902 22.2744 22.5 22.3145 22.5C22.3622 22.5 22.3969 22.4885 22.4424 22.4429C22.484 22.4012 22.5 22.3637 22.5 22.3018C22.5 22.2316 22.482 22.2003 22.4531 22.1714L22.452 22.1703L15.4696 15.1224L15.7614 14.7732C17.0142 13.2735 17.6373 11.5537 17.6373 9.59375C17.6373 8.11833 17.2774 6.76573 16.5587 5.52619C15.8385 4.28405 14.8587 3.3046 13.6128 2.58192C12.3692 1.86053 11.0207 1.5 9.55794 1.5ZM9.55794 2.85352C8.33881 2.85352 7.21989 3.15631 6.19138 3.76191C5.15869 4.36997 4.34569 5.18876 3.74625 6.22415C3.14842 7.25676 2.84956 8.37684 2.84956 9.59375C2.84956 10.8107 3.14842 11.9307 3.74625 12.9633C4.34569 13.9987 5.15869 14.8175 6.19138 15.4256C7.21945 16.0309 8.34186 16.334 9.56865 16.334C10.0866 16.334 10.5977 16.2741 11.1026 16.1542C11.6098 16.0337 12.0801 15.8639 12.5149 15.6458C12.9552 15.425 13.3687 15.1608 13.7559 14.8528C14.1386 14.5484 14.482 14.2009 14.7864 13.8093C15.0948 13.4126 15.3591 12.993 15.5798 12.5504C15.7973 12.1141 15.9667 11.6422 16.0869 11.1331C16.2065 10.6265 16.2663 10.1136 16.2663 9.59375C16.2663 8.37684 15.9675 7.25676 15.3696 6.22415C14.7702 5.18876 13.9572 4.36997 12.9245 3.76191C11.896 3.15631 10.7771 2.85352 9.55794 2.85352ZM5.68399 2.9002C6.86904 2.20242 8.16363 1.85352 9.55794 1.85352C10.9522 1.85352 12.2468 2.20242 13.4319 2.9002C14.6128 3.59552 15.5492 4.53846 16.2351 5.72311C16.9225 6.91056 17.2663 8.20389 17.2663 9.59375C17.2663 10.1911 17.1975 10.7811 17.0601 11.363C16.9233 11.9425 16.7285 12.4875 16.4747 12.9965C16.2241 13.4992 15.9244 13.9748 15.5759 14.4231C15.2233 14.8766 14.824 15.281 14.3784 15.6354C13.9374 15.9863 13.4655 16.2879 12.9632 16.5397C12.4554 16.7943 11.9118 16.9898 11.3337 17.1271C10.7532 17.265 10.1646 17.334 9.56865 17.334C8.16772 17.334 6.86948 16.9853 5.68399 16.2873C4.5031 15.592 3.56668 14.649 2.88082 13.4644C2.19335 12.2769 1.84956 10.9836 1.84956 9.59375C1.84956 8.20389 2.19335 6.91056 2.88082 5.72311C3.56668 4.53846 4.5031 3.59552 5.68399 2.9002Z" fill="#071E20"/>
</svg>
