<svg width="80" height="80" viewBox="0 0 80 80" fill="none" xmlns="http://www.w3.org/2000/svg">
<path fill-rule="evenodd" clip-rule="evenodd" d="M60.4366 34.1649C59.4353 30.7175 57.5696 27.635 55.0874 25.1657C51.2723 21.37 45.9997 19.0214 40.1774 19.0214C34.3545 19.0214 29.0829 21.37 25.2673 25.1657C21.4526 28.9617 19.092 34.2075 19.092 40.0003C19.092 45.7934 21.4526 51.0386 25.2673 54.8347C29.0829 58.6303 34.355 60.9788 40.1774 60.9788C45.9997 60.9788 51.2723 58.6303 55.0874 54.8347C57.5962 52.3388 59.4761 49.2163 60.4693 45.7236H80C78.7385 54.4782 74.6286 62.3193 68.6318 68.2834C61.3559 75.5226 51.3055 80 40.2036 80C29.1038 80 19.0522 75.5216 11.7761 68.2839C4.50149 61.0447 0 51.0456 0 40.0003C0 28.9556 4.50149 18.9557 11.7761 11.7167C19.0522 4.47763 29.1038 0 40.2036 0C51.3055 0 61.3559 4.47763 68.6318 11.7167C74.6025 17.6568 78.7033 25.4554 79.9834 34.1649H60.4366ZM39.9999 28.4954C46.3536 28.4954 51.5043 33.6462 51.5043 40C51.5043 46.3538 46.3536 51.5047 39.9999 51.5047C33.6461 51.5047 28.4953 46.3538 28.4953 40C28.4953 33.6462 33.6461 28.4954 39.9999 28.4954Z" fill="#07D7E6"/>
</svg>
