<svg width="132" height="40" viewBox="0 0 132 40" fill="none" xmlns="http://www.w3.org/2000/svg">
<path d="M1.28906 11V0.433594H3.64258V9.125H7.7832V0.433594H10.1465V11H1.28906ZM11.582 9.13477L11.3965 14.1348H9.23828V11H7.96875V9.13477H11.582ZM17.9004 11.1953C17.1191 11.1953 16.4128 11.0684 15.7812 10.8145C15.1562 10.554 14.6224 10.1927 14.1797 9.73047C13.7435 9.26823 13.4082 8.72461 13.1738 8.09961C12.9395 7.47461 12.8223 6.80078 12.8223 6.07812V5.6875C12.8223 4.86068 12.9427 4.11198 13.1836 3.44141C13.4245 2.77083 13.7598 2.19792 14.1895 1.72266C14.6191 1.24089 15.127 0.873047 15.7129 0.619141C16.2988 0.365234 16.9336 0.238281 17.6172 0.238281C18.3724 0.238281 19.0332 0.365234 19.5996 0.619141C20.166 0.873047 20.6348 1.23112 21.0059 1.69336C21.3835 2.14909 21.6634 2.69271 21.8457 3.32422C22.0345 3.95573 22.1289 4.65234 22.1289 5.41406V6.41992H13.9648V4.73047H19.8047V4.54492C19.7917 4.12174 19.707 3.72461 19.5508 3.35352C19.401 2.98242 19.1699 2.68294 18.8574 2.45508C18.5449 2.22721 18.1283 2.11328 17.6074 2.11328C17.2168 2.11328 16.8685 2.19792 16.5625 2.36719C16.263 2.52995 16.0124 2.76758 15.8105 3.08008C15.6087 3.39258 15.4525 3.77018 15.3418 4.21289C15.2376 4.64909 15.1855 5.14062 15.1855 5.6875V6.07812C15.1855 6.54036 15.2474 6.97005 15.3711 7.36719C15.5013 7.75781 15.6901 8.09961 15.9375 8.39258C16.1849 8.68555 16.4844 8.91667 16.8359 9.08594C17.1875 9.2487 17.5879 9.33008 18.0371 9.33008C18.6035 9.33008 19.1081 9.21615 19.5508 8.98828C19.9935 8.76042 20.3776 8.43815 20.7031 8.02148L21.9434 9.22266C21.7155 9.55469 21.4193 9.8737 21.0547 10.1797C20.6901 10.4792 20.2441 10.7233 19.7168 10.9121C19.196 11.1009 18.5905 11.1953 17.9004 11.1953ZM31.1816 4.84766V6.70312H25.7129V4.84766H31.1816ZM26.3965 0.433594V11H24.043V0.433594H26.3965ZM32.8809 0.433594V11H30.5273V0.433594H32.8809ZM40.293 0.433594V11H37.9297V0.433594H40.293ZM43.7598 0.433594V2.28906H34.5215V0.433594H43.7598ZM47.6953 2.46484V15.0625H45.3418V0.433594H47.5098L47.6953 2.46484ZM54.5801 5.61914V5.82422C54.5801 6.59245 54.4889 7.30534 54.3066 7.96289C54.1309 8.61393 53.8672 9.18359 53.5156 9.67188C53.1706 10.1536 52.7441 10.528 52.2363 10.7949C51.7285 11.0618 51.1426 11.1953 50.4785 11.1953C49.821 11.1953 49.2448 11.0749 48.75 10.834C48.2617 10.5866 47.8483 10.2383 47.5098 9.78906C47.1712 9.33984 46.8978 8.8125 46.6895 8.20703C46.4876 7.59505 46.3444 6.92448 46.2598 6.19531V5.4043C46.3444 4.62956 46.4876 3.92643 46.6895 3.29492C46.8978 2.66341 47.1712 2.11979 47.5098 1.66406C47.8483 1.20833 48.2617 0.856771 48.75 0.609375C49.2383 0.361979 49.8079 0.238281 50.459 0.238281C51.123 0.238281 51.7122 0.36849 52.2266 0.628906C52.7409 0.882812 53.1738 1.2474 53.5254 1.72266C53.877 2.19141 54.1406 2.75781 54.3164 3.42188C54.4922 4.07943 54.5801 4.81185 54.5801 5.61914ZM52.2266 5.82422V5.61914C52.2266 5.13086 52.181 4.67839 52.0898 4.26172C51.9987 3.83854 51.8555 3.46745 51.6602 3.14844C51.4648 2.82943 51.2142 2.58203 50.9082 2.40625C50.6087 2.22396 50.2474 2.13281 49.8242 2.13281C49.4076 2.13281 49.0495 2.20443 48.75 2.34766C48.4505 2.48438 48.1999 2.67643 47.998 2.92383C47.7962 3.17122 47.64 3.46094 47.5293 3.79297C47.4186 4.11849 47.3405 4.47331 47.2949 4.85742V6.75195C47.373 7.2207 47.5065 7.65039 47.6953 8.04102C47.8841 8.43164 48.151 8.74414 48.4961 8.97852C48.8477 9.20638 49.2969 9.32031 49.8438 9.32031C50.2669 9.32031 50.6283 9.22917 50.9277 9.04688C51.2272 8.86458 51.4714 8.61393 51.6602 8.29492C51.8555 7.9694 51.9987 7.59505 52.0898 7.17188C52.181 6.7487 52.2266 6.29948 52.2266 5.82422ZM5.52734 37.3203C5.91146 37.3203 6.25651 37.2454 6.5625 37.0957C6.875 36.9395 7.12565 36.7246 7.31445 36.4512C7.50977 36.1777 7.61719 35.862 7.63672 35.5039H9.85352C9.84049 36.1875 9.63867 36.8092 9.24805 37.3691C8.85742 37.929 8.33984 38.375 7.69531 38.707C7.05078 39.0326 6.33789 39.1953 5.55664 39.1953C4.74935 39.1953 4.04622 39.0586 3.44727 38.7852C2.84831 38.5052 2.35026 38.1211 1.95312 37.6328C1.55599 37.1445 1.25651 36.5814 1.05469 35.9434C0.859375 35.3053 0.761719 34.6217 0.761719 33.8926V33.5508C0.761719 32.8216 0.859375 32.138 1.05469 31.5C1.25651 30.8555 1.55599 30.2891 1.95312 29.8008C2.35026 29.3125 2.84831 28.9316 3.44727 28.6582C4.04622 28.3783 4.74609 28.2383 5.54688 28.2383C6.39323 28.2383 7.13542 28.4076 7.77344 28.7461C8.41146 29.0781 8.91276 29.5436 9.27734 30.1426C9.64844 30.735 9.84049 31.4251 9.85352 32.2129H7.63672C7.61719 31.8223 7.51953 31.4707 7.34375 31.1582C7.17448 30.8392 6.93359 30.5853 6.62109 30.3965C6.3151 30.2077 5.94727 30.1133 5.51758 30.1133C5.04232 30.1133 4.64844 30.2109 4.33594 30.4062C4.02344 30.5951 3.7793 30.8555 3.60352 31.1875C3.42773 31.513 3.30078 31.8809 3.22266 32.291C3.15104 32.6947 3.11523 33.1146 3.11523 33.5508V33.8926C3.11523 34.3288 3.15104 34.752 3.22266 35.1621C3.29427 35.5723 3.41797 35.9401 3.59375 36.2656C3.77604 36.5846 4.02344 36.8418 4.33594 37.0371C4.64844 37.2259 5.04557 37.3203 5.52734 37.3203ZM16.5625 28.4336V39H14.1992V28.4336H16.5625ZM20.0293 28.4336V30.2891H10.791V28.4336H20.0293ZM20.7812 33.834V33.6094C20.7812 32.8477 20.8919 32.1413 21.1133 31.4902C21.3346 30.8327 21.6536 30.263 22.0703 29.7812C22.4935 29.293 23.0078 28.9154 23.6133 28.6484C24.2253 28.375 24.9154 28.2383 25.6836 28.2383C26.4583 28.2383 27.1484 28.375 27.7539 28.6484C28.3659 28.9154 28.8835 29.293 29.3066 29.7812C29.7298 30.263 30.0521 30.8327 30.2734 31.4902C30.4948 32.1413 30.6055 32.8477 30.6055 33.6094V33.834C30.6055 34.5957 30.4948 35.3021 30.2734 35.9531C30.0521 36.6042 29.7298 37.1738 29.3066 37.6621C28.8835 38.1439 28.3691 38.5215 27.7637 38.7949C27.1582 39.0618 26.4714 39.1953 25.7031 39.1953C24.9284 39.1953 24.235 39.0618 23.623 38.7949C23.0176 38.5215 22.5033 38.1439 22.0801 37.6621C21.6569 37.1738 21.3346 36.6042 21.1133 35.9531C20.8919 35.3021 20.7812 34.5957 20.7812 33.834ZM23.1348 33.6094V33.834C23.1348 34.3092 23.1836 34.7585 23.2812 35.1816C23.3789 35.6048 23.5319 35.9759 23.7402 36.2949C23.9486 36.6139 24.2155 36.8646 24.541 37.0469C24.8665 37.2292 25.2539 37.3203 25.7031 37.3203C26.1393 37.3203 26.5169 37.2292 26.8359 37.0469C27.1615 36.8646 27.4284 36.6139 27.6367 36.2949C27.8451 35.9759 27.998 35.6048 28.0957 35.1816C28.1999 34.7585 28.252 34.3092 28.252 33.834V33.6094C28.252 33.1406 28.1999 32.6979 28.0957 32.2812C27.998 31.8581 27.8418 31.4837 27.627 31.1582C27.4186 30.8327 27.1517 30.5788 26.8262 30.3965C26.5072 30.2077 26.1263 30.1133 25.6836 30.1133C25.2409 30.1133 24.8568 30.2077 24.5312 30.3965C24.2122 30.5788 23.9486 30.8327 23.7402 31.1582C23.5319 31.4837 23.3789 31.8581 23.2812 32.2812C23.1836 32.6979 23.1348 33.1406 23.1348 33.6094ZM38.8574 36.1484L42.002 28.4336H44.043L39.6582 39H38.0566L33.6816 28.4336H35.7227L38.8574 36.1484ZM35.1172 28.4336V39H32.7637V28.4336H35.1172ZM42.5977 39V28.4336H44.9609V39H42.5977ZM53.5547 36.8809V31.8418C53.5547 31.4642 53.4863 31.1387 53.3496 30.8652C53.2129 30.5918 53.0046 30.3802 52.7246 30.2305C52.4512 30.0807 52.1061 30.0059 51.6895 30.0059C51.3053 30.0059 50.9733 30.071 50.6934 30.2012C50.4134 30.3314 50.1953 30.5072 50.0391 30.7285C49.8828 30.9499 49.8047 31.2005 49.8047 31.4805H47.4609C47.4609 31.0638 47.5618 30.6602 47.7637 30.2695C47.9655 29.8789 48.2585 29.5306 48.6426 29.2246C49.0267 28.9186 49.4857 28.6777 50.0195 28.502C50.5534 28.3262 51.1523 28.2383 51.8164 28.2383C52.6107 28.2383 53.3138 28.3717 53.9258 28.6387C54.5443 28.9056 55.0293 29.3092 55.3809 29.8496C55.7389 30.3835 55.918 31.054 55.918 31.8613V36.5586C55.918 37.0404 55.9505 37.4733 56.0156 37.8574C56.0872 38.235 56.1882 38.5638 56.3184 38.8438V39H53.9062C53.7956 38.7461 53.7077 38.4238 53.6426 38.0332C53.584 37.6361 53.5547 37.252 53.5547 36.8809ZM53.8965 32.5742L53.916 34.0293H52.2266C51.7904 34.0293 51.4062 34.0716 51.0742 34.1562C50.7422 34.2344 50.4655 34.3516 50.2441 34.5078C50.0228 34.6641 49.8568 34.8529 49.7461 35.0742C49.6354 35.2956 49.5801 35.5462 49.5801 35.8262C49.5801 36.1061 49.6452 36.3633 49.7754 36.5977C49.9056 36.8255 50.0944 37.0046 50.3418 37.1348C50.5957 37.265 50.9017 37.3301 51.2598 37.3301C51.7415 37.3301 52.1615 37.2324 52.5195 37.0371C52.8841 36.8353 53.1706 36.5911 53.3789 36.3047C53.5872 36.0117 53.6979 35.735 53.7109 35.4746L54.4727 36.5195C54.3945 36.7865 54.2611 37.0729 54.0723 37.3789C53.8835 37.6849 53.6361 37.9779 53.3301 38.2578C53.0306 38.5312 52.6693 38.7559 52.2461 38.9316C51.8294 39.1074 51.3477 39.1953 50.8008 39.1953C50.1107 39.1953 49.4954 39.0586 48.9551 38.7852C48.4147 38.5052 47.9915 38.1309 47.6855 37.6621C47.3796 37.1868 47.2266 36.6497 47.2266 36.0508C47.2266 35.4909 47.3307 34.9961 47.5391 34.5664C47.7539 34.1302 48.0664 33.7656 48.4766 33.4727C48.8932 33.1797 49.401 32.9583 50 32.8086C50.599 32.6523 51.2826 32.5742 52.0508 32.5742H53.8965ZM63.125 28.4336V39H60.7617V28.4336H63.125ZM66.5918 28.4336V30.2891H57.3535V28.4336H66.5918ZM90.5078 33.834V33.6094C90.5078 32.8477 90.6185 32.1413 90.8398 31.4902C91.0612 30.8327 91.3802 30.263 91.7969 29.7812C92.2201 29.293 92.7344 28.9154 93.3398 28.6484C93.9518 28.375 94.6419 28.2383 95.4102 28.2383C96.1849 28.2383 96.875 28.375 97.4805 28.6484C98.0924 28.9154 98.61 29.293 99.0332 29.7812C99.4564 30.263 99.7786 30.8327 100 31.4902C100.221 32.1413 100.332 32.8477 100.332 33.6094V33.834C100.332 34.5957 100.221 35.3021 100 35.9531C99.7786 36.6042 99.4564 37.1738 99.0332 37.6621C98.61 38.1439 98.0957 38.5215 97.4902 38.7949C96.8848 39.0618 96.1979 39.1953 95.4297 39.1953C94.6549 39.1953 93.9616 39.0618 93.3496 38.7949C92.7441 38.5215 92.2298 38.1439 91.8066 37.6621C91.3835 37.1738 91.0612 36.6042 90.8398 35.9531C90.6185 35.3021 90.5078 34.5957 90.5078 33.834ZM92.8613 33.6094V33.834C92.8613 34.3092 92.9102 34.7585 93.0078 35.1816C93.1055 35.6048 93.2585 35.9759 93.4668 36.2949C93.6751 36.6139 93.9421 36.8646 94.2676 37.0469C94.5931 37.2292 94.9805 37.3203 95.4297 37.3203C95.8659 37.3203 96.2435 37.2292 96.5625 37.0469C96.888 36.8646 97.1549 36.6139 97.3633 36.2949C97.5716 35.9759 97.7246 35.6048 97.8223 35.1816C97.9264 34.7585 97.9785 34.3092 97.9785 33.834V33.6094C97.9785 33.1406 97.9264 32.6979 97.8223 32.2812C97.7246 31.8581 97.5684 31.4837 97.3535 31.1582C97.1452 30.8327 96.8783 30.5788 96.5527 30.3965C96.2337 30.2077 95.8529 30.1133 95.4102 30.1133C94.9674 30.1133 94.5833 30.2077 94.2578 30.3965C93.9388 30.5788 93.6751 30.8327 93.4668 31.1582C93.2585 31.4837 93.1055 31.8581 93.0078 32.2812C92.9102 32.6979 92.8613 33.1406 92.8613 33.6094ZM109.336 28.4336V30.3086H104.727V39H102.373V28.4336H109.336ZM113.135 35.5625L117.285 28.4336H119.639V39H117.285V31.8613L113.135 39H110.781V28.4336H113.135V35.5625ZM124.561 35.5625L128.711 28.4336H131.064V39H128.711V31.8613L124.561 39H122.207V28.4336H124.561V35.5625Z" fill="black"/>
<path d="M67.7148 33.834V33.6094C67.7148 32.8477 67.8255 32.1413 68.0469 31.4902C68.2682 30.8327 68.5872 30.263 69.0039 29.7812C69.4271 29.293 69.9414 28.9154 70.5469 28.6484C71.1589 28.375 71.849 28.2383 72.6172 28.2383C73.3919 28.2383 74.082 28.375 74.6875 28.6484C75.2995 28.9154 75.8171 29.293 76.2402 29.7812C76.6634 30.263 76.9857 30.8327 77.207 31.4902C77.4284 32.1413 77.5391 32.8477 77.5391 33.6094V33.834C77.5391 34.5957 77.4284 35.3021 77.207 35.9531C76.9857 36.6042 76.6634 37.1738 76.2402 37.6621C75.8171 38.1439 75.3027 38.5215 74.6973 38.7949C74.0918 39.0618 73.4049 39.1953 72.6367 39.1953C71.862 39.1953 71.1686 39.0618 70.5566 38.7949C69.9512 38.5215 69.4368 38.1439 69.0137 37.6621C68.5905 37.1738 68.2682 36.6042 68.0469 35.9531C67.8255 35.3021 67.7148 34.5957 67.7148 33.834ZM70.0684 33.6094V33.834C70.0684 34.3092 70.1172 34.7585 70.2148 35.1816C70.3125 35.6048 70.4655 35.9759 70.6738 36.2949C70.8822 36.6139 71.1491 36.8646 71.4746 37.0469C71.8001 37.2292 72.1875 37.3203 72.6367 37.3203C73.0729 37.3203 73.4505 37.2292 73.7695 37.0469C74.0951 36.8646 74.362 36.6139 74.5703 36.2949C74.7786 35.9759 74.9316 35.6048 75.0293 35.1816C75.1335 34.7585 75.1855 34.3092 75.1855 33.834V33.6094C75.1855 33.1406 75.1335 32.6979 75.0293 32.2812C74.9316 31.8581 74.7754 31.4837 74.5605 31.1582C74.3522 30.8327 74.0853 30.5788 73.7598 30.3965C73.4408 30.2077 73.0599 30.1133 72.6172 30.1133C72.1745 30.1133 71.7904 30.2077 71.4648 30.3965C71.1458 30.5788 70.8822 30.8327 70.6738 31.1582C70.4655 31.4837 70.3125 31.8581 70.2148 32.2812C70.1172 32.6979 70.0684 33.1406 70.0684 33.6094Z" fill="#07D7E6"/>
<path d="M86.6113 28.4336V30.3086H81.4551V28.4336H86.6113ZM88.457 28.4336V39H86.1035V28.4336H88.457ZM80.8789 28.4336H83.2031L82.9199 33.6582C82.8809 34.4329 82.8027 35.1165 82.6855 35.709C82.5749 36.2949 82.4251 36.7995 82.2363 37.2227C82.0475 37.6393 81.8164 37.9779 81.543 38.2383C81.2695 38.4987 80.9505 38.6908 80.5859 38.8145C80.2214 38.9382 79.8112 39 79.3555 39H78.623L78.6133 37.0664L78.9844 37.0371C79.2253 37.0176 79.4336 36.9557 79.6094 36.8516C79.7852 36.7409 79.9349 36.5846 80.0586 36.3828C80.1888 36.181 80.293 35.9206 80.3711 35.6016C80.4557 35.2826 80.5208 34.9049 80.5664 34.4688C80.6185 34.0326 80.6576 33.5247 80.6836 32.9453L80.8789 28.4336Z" fill="#071E20"/>
</svg>
